{"title":"Wisin &amp; Yandel Ft. Chris Brown, T-Pain - Algo Me Gusta De Ti","uid":8693405,"size":109988211,"categoryP":"video","categoryS":"music_videos","magnet":"?xt=urn:btih:7db355743213f35d6e0c6fb19b51c2d8901190c4&amp;dn=Wisin+%26amp%3B+Yandel+Ft.+Chris+Brown%2C+T-Pain+-+Algo+Me+Gusta+De+Ti&amp;tr=udp%3A%2F%2Ftracker.openbittorrent.com%3A80&amp;tr=udp%3A%2F%2Fopen.demonii.com%3A1337&amp;tr=udp%3A%2F%2Ftracker.coppersurfer.tk%3A6969&amp;tr=udp%3A%2F%2Fexodus.desync.com%3A6969","seeders":1,"leechers":0,"uploader":"Sbyky","files":-1,"time":1373920816,"description":"[IMG]http://yuq.me/users/18/139/VAi548I3WD.png[/IMG]\n\nGeneral\nComplete name                            : Wisin &amp; Yandel Ft. Chris Brown, T-Pain - Algo Me Gusta De Ti [Music Video] 720p [Sbyky].mp4\nFormat                                   : MPEG-4\nFormat profile                           : Base Media / Version 2\nCodec ID                                 : mp42\nFile size                                : 105 MiB\nDuration                                 : 4mn 55s\nOverall bit rate mode                    : Variable\nOverall bit rate                         : 2 975 Kbps\nEncoded date                             : UTC 2013-04-08 03:34:44\nTagged date                              : UTC 2013-04-08 03:34:44\n\nVideo\nID                                       : 1\nFormat                                   : AVC\nFormat/Info                              : Advanced Video Codec\nFormat profile                           : &lt;a class=&quot;__cf_email__&quot; href=&quot;/cdn-cgi/l/email-protection&quot; data-cfemail=&quot;6e260709062e225d405f&quot;&gt;[email&amp;#160;protected]&lt;/a&gt;&lt;script cf-hash='f9e31' type=&quot;text/javascript&quot;&gt;\n/* &lt;![CDATA[ */!function(){try{var t=&quot;currentScript&quot;in document?document.currentScript:function(){for(var t=document.getElementsByTagName(&quot;script&quot;),e=t.length;e--;)if(t[e].getAttribute(&quot;cf-hash&quot;))return t[e]}();if(t&amp;&amp;t.previousSibling){var e,r,n,i,c=t.previousSibling,a=c.getAttribute(&quot;data-cfemail&quot;);if(a){for(e=&quot;&quot;,r=parseInt(a.substr(0,2),16),n=2;a.length-n;n+=2)i=parseInt(a.substr(n,2),16)^r,e+=String.fromCharCode(i);e=document.createTextNode(e),c.parentNode.replaceChild(e,c)}}}catch(u){}}();/* ]]&gt; */&lt;/script&gt;\nFormat settings, CABAC                   : Yes\nFormat settings, ReFrames                : 1 frame\nCodec ID                                 : avc1\nCodec ID/Info                            : Advanced Video Coding\nDuration                                 : 4mn 55s\nBit rate                                 : 2 780 Kbps\nMaximum bit rate                         : 5 650 Kbps\nWidth                                    : 1 280 pixels\nHeight                                   : 720 pixels\nDisplay aspect ratio                     : 16:9\nFrame rate mode                          : Constant\nFrame rate                               : 23.976 fps\nColor space                              : YUV\nChroma subsampling                       : 4:2:0\nBit depth                                : 8 bits\nScan type                                : Progressive\nBits/(Pixel*Frame)                       : 0.126\nStream size                              : 98.0 MiB (93%)\nTagged date                              : UTC 2013-04-08 03:34:49\n\nAudio\nID                                       : 2\nFormat                                   : AAC\nFormat/Info                              : Advanced Audio Codec\nFormat profile                           : LC\nCodec ID                                 : 40\nDuration                                 : 4mn 55s\nBit rate mode                            : Variable\nBit rate                                 : 192 Kbps\nMaximum bit rate                         : 201 Kbps\nChannel(s)                               : 2 channels\nChannel positions                        : Front: L R\nSampling rate                            : 44.1 KHz\nCompression mode                         : Lossy\nStream size                              : 6.77 MiB (6%)\nTitle                                    : IsoMedia File Produced by Google, 5-11-2011\nEncoded date                             : UTC 2013-04-08 03:34:47\nTagged date                              : UTC 2013-04-08 03:34:49\n\nShared By Sbyky\n[IMG]http://yuq.me/users/18/139/0aq32UMZvX.gif[/IMG]\n[IMG]http://yuq.me/users/18/139/bQg62viaEG.gif[/IMG]","torrent":{"xt":"urn:btih:7db355743213f35d6e0c6fb19b51c2d8901190c4","amp;dn":"Wisin+%26amp%3B+Yandel+Ft.+Chris+Brown%2C+T-Pain+-+Algo+Me+Gusta+De+Ti","amp;tr":["udp%3A%2F%2Ftracker.openbittorrent.com%3A80","udp%3A%2F%2Fopen.demonii.com%3A1337","udp%3A%2F%2Ftracker.coppersurfer.tk%3A6969","udp%3A%2F%2Fexodus.desync.com%3A6969"],"infoHash":"7db355743213f35d6e0c6fb19b51c2d8901190c4","infoHashBuffer":{"type":"Buffer","data":[125,179,85,116,50,19,243,93,110,12,111,177,155,81,194,216,144,17,144,196]},"announce":[],"urlList":[]}}